<svg xmlns="http://www.w3.org/2000/svg" version="1.1" xmlns:xlink="http://www.w3.org/1999/xlink" xmlns:svgjs="http://svgjs.dev/svgjs" width="1440" height="560" preserveAspectRatio="none" viewBox="0 0 1440 560"><g mask="url(&quot;#SvgjsMask1012&quot;)" fill="none"><rect width="1440" height="560" x="0" y="0" fill="rgba(25, 38, 62, 1)"></rect><path d="M720 779.15C859.89 776.48 1000.83 757.89 1108.33 668.33 1226 570.31 1320.85 433.13 1319.15 280 1317.45 128.02 1207.28 7.68 1099.82-99.82 992.32-207.32 871.57-307.37 720-319.29 557.34-332.08 393.17-277.52 275.32-164.68 155.12-49.59 85.89 113.76 93.99 280 101.76 439.48 191.74 583.88 316.58 683.42 428.91 772.98 576.39 781.91 720 779.15" fill="rgba(41, 63, 104, 1)"></path><path d="M720 648.93C823.39 646.96 927.57 633.23 1007.03 567.03 1094 494.57 1164.11 393.19 1162.85 280 1161.59 167.66 1080.16 78.72 1000.74-0.74 921.28-80.2 832.03-154.15 720-162.95 599.78-172.4 478.43-132.08 391.32-48.68 302.48 36.39 251.31 157.12 257.29 280 263.04 397.88 329.54 504.6 421.82 578.18 504.85 644.38 613.85 650.97 720 648.93" fill="rgba(28, 83, 142, 0.66)"></path><path d="M720 518.72C786.9 517.45 854.31 508.56 905.72 465.72 962 418.84 1007.36 353.24 1006.55 280 1005.74 207.31 953.05 149.76 901.65 98.35 850.24 46.93 792.49-0.92 720-6.62 642.21-12.73 563.69 13.36 507.33 67.33 449.84 122.37 416.73 200.49 420.6 280 424.32 356.27 467.35 425.33 527.06 472.94 580.78 515.77 651.32 520.04 720 518.72" fill="rgba(39, 116, 198, 0.63)"></path><path d="M720 388.51C750.41 387.93 781.05 383.89 804.42 364.42 830 343.11 850.62 313.29 850.25 280 849.88 246.96 825.93 220.8 802.57 197.43 779.2 174.06 752.95 152.31 720 149.72 684.64 146.94 648.95 158.8 623.33 183.33 597.2 208.35 582.15 243.86 583.91 280 585.6 314.67 605.16 346.06 632.3 367.7 656.72 387.17 688.78 389.11 720 388.51" fill="rgba(72, 143, 219, 0.76)"></path></g><defs><mask id="SvgjsMask1012"><rect width="1440" height="560" fill="#ffffff"></rect></mask></defs></svg>